<svg width="66" height="34" viewBox="0 0 66 34" fill="none" xmlns="http://www.w3.org/2000/svg">
<path d="M7.24604 14.914H0.598201C0.544643 14.914 0.517865 14.8806 0.517865 14.8136L0.537949 0.704546C0.537949 0.637599 0.571422 0.604126 0.638369 0.604126H2.92796C2.9949 0.604126 3.02838 0.637599 3.02838 0.704546L3.00829 12.3834H7.24604C7.31298 12.3834 7.34646 12.4169 7.34646 12.4839V14.8136C7.34646 14.8806 7.31298 14.914 7.24604 14.914Z" fill="white"/>
<path d="M15.4203 14.914H8.77243C8.71887 14.914 8.69209 14.8806 8.69209 14.8136L8.71218 0.684462C8.71218 0.630905 8.73895 0.604126 8.79251 0.604126H15.4002C15.4537 0.604126 15.4805 0.637599 15.4805 0.704546V3.00418C15.4805 3.05773 15.4537 3.08451 15.4002 3.08451H11.1825V6.29797H15.4002C15.4537 6.29797 15.4805 6.32475 15.4805 6.3783L15.5006 8.70806C15.5006 8.76162 15.4738 8.7884 15.4203 8.7884H11.1825V12.3834H15.4203C15.4738 12.3834 15.5006 12.4169 15.5006 12.4839V14.8337C15.5006 14.8873 15.4738 14.914 15.4203 14.914Z" fill="white"/>
<path d="M22.1284 14.914H19.6379C19.5777 14.914 19.5442 14.8806 19.5375 14.8136L16.6956 0.684462C16.6822 0.630905 16.709 0.604126 16.7759 0.604126H19.1057C19.1593 0.604126 19.1927 0.630905 19.2061 0.684462L20.8932 10.1039L22.5401 0.684462C22.5535 0.630905 22.5869 0.604126 22.6405 0.604126H24.9401C25.0138 0.604126 25.0405 0.630905 25.0205 0.684462L22.2288 14.8136C22.2221 14.8806 22.1886 14.914 22.1284 14.914Z" fill="white"/>
<path d="M32.9537 14.914H26.3058C26.2523 14.914 26.2255 14.8806 26.2255 14.8136L26.2456 0.684462C26.2456 0.630905 26.2724 0.604126 26.3259 0.604126H32.9336C32.9872 0.604126 33.0139 0.637599 33.0139 0.704546V3.00418C33.0139 3.05773 32.9872 3.08451 32.9336 3.08451H28.7159V6.29797H32.9336C32.9872 6.29797 33.0139 6.32475 33.0139 6.3783L33.034 8.70806C33.034 8.76162 33.0072 8.7884 32.9537 8.7884H28.7159V12.3834H32.9537C33.0072 12.3834 33.034 12.4169 33.034 12.4839V14.8337C33.034 14.8873 33.0072 14.914 32.9537 14.914Z" fill="white"/>
<path d="M41.5898 14.914H34.942C34.8884 14.914 34.8617 14.8806 34.8617 14.8136L34.8818 0.704546C34.8818 0.637599 34.9152 0.604126 34.9822 0.604126H37.2718C37.3387 0.604126 37.3722 0.637599 37.3722 0.704546L37.3521 12.3834H41.5898C41.6568 12.3834 41.6903 12.4169 41.6903 12.4839V14.8136C41.6903 14.8806 41.6568 14.914 41.5898 14.914Z" fill="white"/>
<path d="M52.1641 15.1149C51.4411 15.1149 50.7716 14.9274 50.1557 14.5525C49.5398 14.1776 49.0477 13.6755 48.6795 13.0462C48.318 12.4102 48.1373 11.7173 48.1373 10.9675L48.1774 0.684462C48.1774 0.630905 48.2042 0.604126 48.2578 0.604126H50.5674C50.621 0.604126 50.6478 0.630905 50.6478 0.684462V10.9675C50.6478 11.4295 50.7951 11.8244 51.0896 12.1525C51.3842 12.4738 51.7424 12.6345 52.1641 12.6345C52.606 12.6345 52.9742 12.4738 53.2687 12.1525C53.5633 11.8244 53.7106 11.4295 53.7106 10.9675V0.684462C53.7106 0.630905 53.7374 0.604126 53.7909 0.604126H56.1006C56.1542 0.604126 56.1809 0.630905 56.1809 0.684462L56.2211 10.9675C56.2211 11.724 56.0403 12.4203 55.6788 13.0563C55.3106 13.6856 54.8219 14.1877 54.2127 14.5626C53.6035 14.9308 52.9206 15.1149 52.1641 15.1149Z" fill="white"/>
<path d="M60.248 14.914H57.9383C57.8713 14.914 57.8379 14.8806 57.8379 14.8136L57.878 0.684462C57.878 0.630905 57.9048 0.604126 57.9584 0.604126H61.9149C63.1735 0.604126 64.1677 0.989071 64.8974 1.75896C65.6339 2.52216 66.0021 3.56318 66.0021 4.88204C66.0021 5.84608 65.8113 6.68626 65.4297 7.40259C65.0414 8.11223 64.5393 8.6612 63.9234 9.04949C63.3074 9.43778 62.638 9.63193 61.9149 9.63193H60.3484V14.8136C60.3484 14.8806 60.3149 14.914 60.248 14.914ZM61.9149 3.04434L60.3484 3.06443V7.1415H61.9149C62.3501 7.1415 62.7284 6.93396 63.0497 6.51889C63.371 6.09713 63.5317 5.55151 63.5317 4.88204C63.5317 4.34646 63.3878 3.90796 63.0999 3.56653C62.812 3.21841 62.417 3.04434 61.9149 3.04434Z" fill="white"/>
<path d="M4.28363 33.3959C3.54052 33.3959 2.87105 33.2118 2.27522 32.8436C1.6727 32.4754 1.18733 31.9799 0.819126 31.3573C0.457612 30.7347 0.276855 30.0385 0.276855 29.2686V22.7513C0.276855 22.0015 0.46096 21.3186 0.829168 20.7027C1.19068 20.0801 1.67605 19.5847 2.28526 19.2165C2.89448 18.8416 3.56061 18.6542 4.28363 18.6542C5.04013 18.6542 5.72299 18.8349 6.33221 19.1964C6.94143 19.5646 7.42345 20.0567 7.77827 20.6726C8.13978 21.2885 8.32054 21.9814 8.32054 22.7513V23.6953C8.32054 23.7488 8.28706 23.7756 8.22012 23.7756H5.91044C5.85689 23.7756 5.83011 23.7488 5.83011 23.6953V22.912C5.83011 22.3898 5.68282 21.958 5.38826 21.6166C5.09369 21.2751 4.72548 21.1044 4.28363 21.1044C3.88865 21.1044 3.53717 21.2684 3.22922 21.5965C2.92126 21.9245 2.76728 22.3095 2.76728 22.7513V29.2686C2.76728 29.7171 2.91791 30.1054 3.21918 30.4335C3.52044 30.7548 3.87526 30.9155 4.28363 30.9155C4.72548 30.9155 5.09369 30.7582 5.38826 30.4435C5.68282 30.1222 5.83011 29.7305 5.83011 29.2686V28.2544H4.39409C4.32045 28.2544 4.28363 28.2209 4.28363 28.1539V25.8543C4.28363 25.7874 4.32045 25.7539 4.39409 25.7539H8.2402C8.29376 25.7539 8.32054 25.7874 8.32054 25.8543V29.2686C8.32054 30.0385 8.13978 30.7347 7.77827 31.3573C7.41006 31.9799 6.92469 32.4754 6.32217 32.8436C5.71965 33.2118 5.04013 33.3959 4.28363 33.3959Z" fill="white"/>
<path d="M11.963 33.0946L14.5137 18.9655C14.5271 18.9119 14.5605 18.8851 14.6141 18.8851H17.5966C17.6501 18.8851 17.6836 18.9119 17.697 18.9655L20.1473 33.0946C20.154 33.1616 20.1272 33.195 20.0669 33.195H17.7874C17.7204 33.195 17.6836 33.1616 17.6769 33.0946L17.456 31.5883H14.6543L14.4333 33.0946C14.4266 33.1616 14.3932 33.195 14.3329 33.195H12.0433C11.9898 33.195 11.963 33.1616 11.963 33.0946ZM15.9898 23.6149L15.066 29.3891H17.0443L16.2007 23.6149L16.0802 22.8517L15.9898 23.6149Z" fill="white"/>
<path d="M26.722 33.195H24.3922C24.3387 33.195 24.3119 33.1616 24.3119 33.0946L24.3521 18.9655C24.3521 18.9119 24.3788 18.8851 24.4324 18.8851H26.9429C26.9965 18.8851 27.0433 18.9119 27.0835 18.9655L28.9614 21.6768L30.8292 18.9655C30.8694 18.9119 30.9196 18.8851 30.9798 18.8851H33.5004C33.5606 18.8851 33.5907 18.9119 33.5907 18.9655L33.6309 33.0946C33.6309 33.1616 33.6041 33.195 33.5506 33.195H31.2208C31.1673 33.195 31.1405 33.1616 31.1405 33.0946L31.1204 22.6007L28.9614 25.7338L26.8224 22.6007L26.8023 33.0946C26.8023 33.1616 26.7755 33.195 26.722 33.195Z" fill="white"/>
<path d="M40.6676 33.195H38.3378C38.2709 33.195 38.2374 33.1616 38.2374 33.0946L38.2575 18.9655C38.2575 18.9119 38.2843 18.8851 38.3378 18.8851H40.6475C40.7011 18.8851 40.7278 18.9119 40.7278 18.9655L40.7479 33.0946C40.7479 33.1616 40.7211 33.195 40.6676 33.195Z" fill="white"/>
<path d="M47.6741 33.195H45.6155C45.5084 33.195 45.4548 33.1482 45.4548 33.0545L45.4347 19.0458C45.4347 18.9387 45.4883 18.8851 45.5954 18.8851H47.4532L50.9277 26.9891L50.8273 19.0458C50.8273 18.9387 50.8876 18.8851 51.0081 18.8851H53.0466C53.127 18.8851 53.1671 18.9387 53.1671 19.0458L53.1872 33.0745C53.1872 33.1549 53.1537 33.195 53.0868 33.195H51.2792L47.7143 25.6233L47.8649 33.0344C47.8649 33.1415 47.8013 33.195 47.6741 33.195Z" fill="white"/>
<path d="M61.6197 33.3959C60.8766 33.3959 60.2071 33.2118 59.6113 32.8436C59.0088 32.4754 58.5234 31.9799 58.1552 31.3573C57.7937 30.7347 57.6129 30.0385 57.6129 29.2686V22.7513C57.6129 22.0015 57.797 21.3186 58.1652 20.7027C58.5268 20.0801 59.0121 19.5847 59.6213 19.2165C60.2306 18.8416 60.8967 18.6542 61.6197 18.6542C62.3762 18.6542 63.0591 18.8349 63.6683 19.1964C64.2775 19.5646 64.7595 20.0567 65.1143 20.6726C65.4759 21.2885 65.6566 21.9814 65.6566 22.7513V23.6953C65.6566 23.7488 65.6231 23.7756 65.5562 23.7756H63.2465C63.193 23.7756 63.1662 23.7488 63.1662 23.6953V22.912C63.1662 22.3898 63.0189 21.958 62.7243 21.6166C62.4298 21.2751 62.0616 21.1044 61.6197 21.1044C61.2247 21.1044 60.8732 21.2684 60.5653 21.5965C60.2573 21.9245 60.1034 22.3095 60.1034 22.7513V29.2686C60.1034 29.7171 60.254 30.1054 60.5553 30.4335C60.8565 30.7548 61.2113 30.9155 61.6197 30.9155C62.0616 30.9155 62.4298 30.7582 62.7243 30.4435C63.0189 30.1222 63.1662 29.7305 63.1662 29.2686V28.2544H61.7302C61.6565 28.2544 61.6197 28.2209 61.6197 28.1539V25.8543C61.6197 25.7874 61.6565 25.7539 61.7302 25.7539H65.5763C65.6298 25.7539 65.6566 25.7874 65.6566 25.8543V29.2686C65.6566 30.0385 65.4759 30.7347 65.1143 31.3573C64.7461 31.9799 64.2608 32.4754 63.6582 32.8436C63.0557 33.2118 62.3762 33.3959 61.6197 33.3959Z" fill="white"/>
</svg>
