<svg width="108" height="34" viewBox="0 0 108 34" fill="none" xmlns="http://www.w3.org/2000/svg">
<path d="M19.4771 2.02538L22.7528 8.66264C23.1327 9.43232 23.8669 9.96584 24.7164 10.0893L32.0411 11.1537C34.1802 11.4645 35.0343 14.0932 33.4864 15.602L28.1862 20.7684C27.5716 21.3676 27.2911 22.2307 27.4362 23.0768L28.6874 30.3718C29.0528 32.5023 26.8167 34.1269 24.9034 33.121L18.352 29.6768C17.5923 29.2774 16.6846 29.2774 15.9248 29.6768L9.37346 33.121C7.4602 34.1269 5.22407 32.5023 5.58947 30.3718L6.84067 23.0768C6.98574 22.2307 6.70527 21.3676 6.09061 20.7684L0.790428 15.602C-0.75744 14.0932 0.0966793 11.4645 2.23575 11.1537L9.56045 10.0893C10.4099 9.96591 11.1442 9.43239 11.5241 8.66264L14.7998 2.02538C15.7564 0.0870805 18.5205 0.0870805 19.4771 2.02538Z" fill="#FCC85D"/>
<path d="M28.1852 20.7666C27.5716 21.3692 27.2896 22.2317 27.4389 23.0775L28.6883 30.3696C29.0531 32.5036 26.8141 34.129 24.9013 33.1228L18.35 29.6785C17.5926 29.2749 16.686 29.2749 15.923 29.6785L9.37178 33.1228C7.45893 34.129 5.2254 32.5036 5.59025 30.3696L6.45822 25.3L9.79191 23.5474C10.5548 23.1438 11.4615 23.1438 12.2189 23.5474L18.7702 26.9917C20.683 27.9979 22.9221 26.3725 22.5572 24.2385L21.3022 16.9464C21.1585 16.1005 21.4404 15.2381 22.0541 14.6355L26.4603 10.3453L32.0386 11.1525C34.1781 11.4621 35.035 14.0937 33.4871 15.6029L28.1852 20.7666Z" fill="#EF9638"/>
<path d="M28.1851 20.7666C27.5715 21.3692 27.2895 22.2317 27.4388 23.0775L28.6882 30.3696C29.053 32.5036 26.814 34.129 24.9012 33.1228L18.3499 29.6785C17.5925 29.2749 16.6859 29.2749 15.9229 29.6785L9.37167 33.1228C7.69649 34.0018 5.78364 32.8685 5.57361 31.1436C6.07118 31.2099 6.60189 31.127 7.1105 30.8616L13.6618 27.4174C14.4247 27.0138 15.3314 27.0138 16.0888 27.4174L22.6401 30.8616C24.5529 31.8678 26.792 30.2424 26.4271 28.1084L25.1777 20.8163C25.0284 19.9704 25.3103 19.108 25.924 18.5054L31.2259 13.3418C31.8616 12.7226 32.0938 11.9099 31.9888 11.147L32.0386 11.1525C34.1782 11.4622 35.035 14.0937 33.4871 15.603L28.1851 20.7666Z" fill="#F78426"/>
<path d="M49.246 14.914H42.5982C42.5446 14.914 42.5179 14.8806 42.5179 14.8136L42.5379 0.704546C42.5379 0.637599 42.5714 0.604126 42.6384 0.604126H44.928C44.9949 0.604126 45.0284 0.637599 45.0284 0.704546L45.0083 12.3834H49.246C49.313 12.3834 49.3465 12.4169 49.3465 12.4839V14.8136C49.3465 14.8806 49.313 14.914 49.246 14.914Z" fill="white"/>
<path d="M57.4203 14.914H50.7724C50.7189 14.914 50.6921 14.8806 50.6921 14.8136L50.7122 0.684462C50.7122 0.630905 50.739 0.604126 50.7925 0.604126H57.4002C57.4537 0.604126 57.4805 0.637599 57.4805 0.704546V3.00418C57.4805 3.05773 57.4537 3.08451 57.4002 3.08451H53.1825V6.29797H57.4002C57.4537 6.29797 57.4805 6.32475 57.4805 6.3783L57.5006 8.70806C57.5006 8.76162 57.4738 8.7884 57.4203 8.7884H53.1825V12.3834H57.4203C57.4738 12.3834 57.5006 12.4169 57.5006 12.4839V14.8337C57.5006 14.8873 57.4738 14.914 57.4203 14.914Z" fill="white"/>
<path d="M64.1284 14.914H61.6379C61.5777 14.914 61.5442 14.8806 61.5375 14.8136L58.6956 0.684462C58.6822 0.630905 58.709 0.604126 58.7759 0.604126H61.1057C61.1593 0.604126 61.1927 0.630905 61.2061 0.684462L62.8932 10.1039L64.5401 0.684462C64.5535 0.630905 64.5869 0.604126 64.6405 0.604126H66.9401C67.0138 0.604126 67.0405 0.630905 67.0205 0.684462L64.2288 14.8136C64.2221 14.8806 64.1886 14.914 64.1284 14.914Z" fill="white"/>
<path d="M74.9537 14.914H68.3058C68.2523 14.914 68.2255 14.8806 68.2255 14.8136L68.2456 0.684462C68.2456 0.630905 68.2724 0.604126 68.3259 0.604126H74.9336C74.9872 0.604126 75.0139 0.637599 75.0139 0.704546V3.00418C75.0139 3.05773 74.9872 3.08451 74.9336 3.08451H70.7159V6.29797H74.9336C74.9872 6.29797 75.0139 6.32475 75.0139 6.3783L75.034 8.70806C75.034 8.76162 75.0072 8.7884 74.9537 8.7884H70.7159V12.3834H74.9537C75.0072 12.3834 75.034 12.4169 75.034 12.4839V14.8337C75.034 14.8873 75.0072 14.914 74.9537 14.914Z" fill="white"/>
<path d="M83.5898 14.914H76.942C76.8884 14.914 76.8617 14.8806 76.8617 14.8136L76.8818 0.704546C76.8818 0.637599 76.9152 0.604126 76.9822 0.604126H79.2718C79.3387 0.604126 79.3722 0.637599 79.3722 0.704546L79.3521 12.3834H83.5898C83.6568 12.3834 83.6903 12.4169 83.6903 12.4839V14.8136C83.6903 14.8806 83.6568 14.914 83.5898 14.914Z" fill="white"/>
<path d="M94.1641 15.1149C93.4411 15.1149 92.7716 14.9274 92.1557 14.5525C91.5398 14.1776 91.0477 13.6755 90.6795 13.0462C90.318 12.4102 90.1373 11.7173 90.1373 10.9675L90.1774 0.684462C90.1774 0.630905 90.2042 0.604126 90.2578 0.604126H92.5674C92.621 0.604126 92.6478 0.630905 92.6478 0.684462V10.9675C92.6478 11.4295 92.7951 11.8244 93.0896 12.1525C93.3842 12.4738 93.7424 12.6345 94.1641 12.6345C94.606 12.6345 94.9742 12.4738 95.2687 12.1525C95.5633 11.8244 95.7106 11.4295 95.7106 10.9675V0.684462C95.7106 0.630905 95.7374 0.604126 95.7909 0.604126H98.1006C98.1542 0.604126 98.1809 0.630905 98.1809 0.684462L98.2211 10.9675C98.2211 11.724 98.0403 12.4203 97.6788 13.0563C97.3106 13.6856 96.8219 14.1877 96.2127 14.5626C95.6035 14.9308 94.9206 15.1149 94.1641 15.1149Z" fill="white"/>
<path d="M102.248 14.914H99.9383C99.8713 14.914 99.8379 14.8806 99.8379 14.8136L99.878 0.684462C99.878 0.630905 99.9048 0.604126 99.9584 0.604126H103.915C105.174 0.604126 106.168 0.989071 106.897 1.75896C107.634 2.52216 108.002 3.56318 108.002 4.88204C108.002 5.84608 107.811 6.68626 107.43 7.40259C107.041 8.11223 106.539 8.6612 105.923 9.04949C105.307 9.43778 104.638 9.63193 103.915 9.63193H102.348V14.8136C102.348 14.8806 102.315 14.914 102.248 14.914ZM103.915 3.04434L102.348 3.06443V7.1415H103.915C104.35 7.1415 104.728 6.93396 105.05 6.51889C105.371 6.09713 105.532 5.55151 105.532 4.88204C105.532 4.34646 105.388 3.90796 105.1 3.56653C104.812 3.21841 104.417 3.04434 103.915 3.04434Z" fill="white"/>
<path d="M46.2836 33.3959C45.5405 33.3959 44.8711 33.2118 44.2752 32.8436C43.6727 32.4754 43.1873 31.9799 42.8191 31.3573C42.4576 30.7347 42.2769 30.0385 42.2769 29.2686V22.7513C42.2769 22.0015 42.461 21.3186 42.8292 20.7027C43.1907 20.0801 43.676 19.5847 44.2853 19.2165C44.8945 18.8416 45.5606 18.6542 46.2836 18.6542C47.0401 18.6542 47.723 18.8349 48.3322 19.1964C48.9414 19.5646 49.4234 20.0567 49.7783 20.6726C50.1398 21.2885 50.3205 21.9814 50.3205 22.7513V23.6953C50.3205 23.7488 50.2871 23.7756 50.2201 23.7756H47.9104C47.8569 23.7756 47.8301 23.7488 47.8301 23.6953V22.912C47.8301 22.3898 47.6828 21.958 47.3883 21.6166C47.0937 21.2751 46.7255 21.1044 46.2836 21.1044C45.8886 21.1044 45.5372 21.2684 45.2292 21.5965C44.9213 21.9245 44.7673 22.3095 44.7673 22.7513V29.2686C44.7673 29.7171 44.9179 30.1054 45.2192 30.4335C45.5204 30.7548 45.8753 30.9155 46.2836 30.9155C46.7255 30.9155 47.0937 30.7582 47.3883 30.4435C47.6828 30.1222 47.8301 29.7305 47.8301 29.2686V28.2544H46.3941C46.3205 28.2544 46.2836 28.2209 46.2836 28.1539V25.8543C46.2836 25.7874 46.3205 25.7539 46.3941 25.7539H50.2402C50.2938 25.7539 50.3205 25.7874 50.3205 25.8543V29.2686C50.3205 30.0385 50.1398 30.7347 49.7783 31.3573C49.4101 31.9799 48.9247 32.4754 48.3222 32.8436C47.7196 33.2118 47.0401 33.3959 46.2836 33.3959Z" fill="white"/>
<path d="M53.963 33.0946L56.5137 18.9655C56.5271 18.9119 56.5605 18.8851 56.6141 18.8851H59.5966C59.6501 18.8851 59.6836 18.9119 59.697 18.9655L62.1473 33.0946C62.154 33.1616 62.1272 33.195 62.0669 33.195H59.7874C59.7204 33.195 59.6836 33.1616 59.6769 33.0946L59.456 31.5883H56.6543L56.4333 33.0946C56.4266 33.1616 56.3932 33.195 56.3329 33.195H54.0433C53.9898 33.195 53.963 33.1616 53.963 33.0946ZM57.9898 23.6149L57.066 29.3891H59.0443L58.2007 23.6149L58.0802 22.8517L57.9898 23.6149Z" fill="white"/>
<path d="M68.722 33.195H66.3922C66.3387 33.195 66.3119 33.1616 66.3119 33.0946L66.3521 18.9655C66.3521 18.9119 66.3788 18.8851 66.4324 18.8851H68.9429C68.9965 18.8851 69.0433 18.9119 69.0835 18.9655L70.9614 21.6768L72.8292 18.9655C72.8694 18.9119 72.9196 18.8851 72.9798 18.8851H75.5004C75.5606 18.8851 75.5907 18.9119 75.5907 18.9655L75.6309 33.0946C75.6309 33.1616 75.6041 33.195 75.5506 33.195H73.2208C73.1673 33.195 73.1405 33.1616 73.1405 33.0946L73.1204 22.6007L70.9614 25.7338L68.8224 22.6007L68.8023 33.0946C68.8023 33.1616 68.7755 33.195 68.722 33.195Z" fill="white"/>
<path d="M82.6676 33.195H80.3378C80.2709 33.195 80.2374 33.1616 80.2374 33.0946L80.2575 18.9655C80.2575 18.9119 80.2843 18.8851 80.3378 18.8851H82.6475C82.7011 18.8851 82.7278 18.9119 82.7278 18.9655L82.7479 33.0946C82.7479 33.1616 82.7211 33.195 82.6676 33.195Z" fill="white"/>
<path d="M89.6741 33.195H87.6155C87.5084 33.195 87.4548 33.1482 87.4548 33.0545L87.4347 19.0458C87.4347 18.9387 87.4883 18.8851 87.5954 18.8851H89.4532L92.9277 26.9891L92.8273 19.0458C92.8273 18.9387 92.8876 18.8851 93.0081 18.8851H95.0466C95.127 18.8851 95.1671 18.9387 95.1671 19.0458L95.1872 33.0745C95.1872 33.1549 95.1537 33.195 95.0868 33.195H93.2792L89.7143 25.6233L89.8649 33.0344C89.8649 33.1415 89.8013 33.195 89.6741 33.195Z" fill="white"/>
<path d="M103.62 33.3959C102.877 33.3959 102.207 33.2118 101.611 32.8436C101.009 32.4754 100.523 31.9799 100.155 31.3573C99.7937 30.7347 99.6129 30.0385 99.6129 29.2686V22.7513C99.6129 22.0015 99.797 21.3186 100.165 20.7027C100.527 20.0801 101.012 19.5847 101.621 19.2165C102.231 18.8416 102.897 18.6542 103.62 18.6542C104.376 18.6542 105.059 18.8349 105.668 19.1964C106.278 19.5646 106.76 20.0567 107.114 20.6726C107.476 21.2885 107.657 21.9814 107.657 22.7513V23.6953C107.657 23.7488 107.623 23.7756 107.556 23.7756H105.247C105.193 23.7756 105.166 23.7488 105.166 23.6953V22.912C105.166 22.3898 105.019 21.958 104.724 21.6166C104.43 21.2751 104.062 21.1044 103.62 21.1044C103.225 21.1044 102.873 21.2684 102.565 21.5965C102.257 21.9245 102.103 22.3095 102.103 22.7513V29.2686C102.103 29.7171 102.254 30.1054 102.555 30.4335C102.857 30.7548 103.211 30.9155 103.62 30.9155C104.062 30.9155 104.43 30.7582 104.724 30.4435C105.019 30.1222 105.166 29.7305 105.166 29.2686V28.2544H103.73C103.657 28.2544 103.62 28.2209 103.62 28.1539V25.8543C103.62 25.7874 103.657 25.7539 103.73 25.7539H107.576C107.63 25.7539 107.657 25.7874 107.657 25.8543V29.2686C107.657 30.0385 107.476 30.7347 107.114 31.3573C106.746 31.9799 106.261 32.4754 105.658 32.8436C105.056 33.2118 104.376 33.3959 103.62 33.3959Z" fill="white"/>
</svg>
