<svg width="35" height="34" viewBox="0 0 35 34" fill="none" xmlns="http://www.w3.org/2000/svg">
<path d="M19.4771 2.02538L22.7528 8.66264C23.1327 9.43232 23.8669 9.96584 24.7164 10.0893L32.0411 11.1537C34.1802 11.4645 35.0343 14.0932 33.4864 15.602L28.1862 20.7684C27.5716 21.3676 27.2911 22.2307 27.4362 23.0768L28.6874 30.3718C29.0528 32.5023 26.8167 34.1269 24.9034 33.121L18.352 29.6768C17.5923 29.2774 16.6846 29.2774 15.9248 29.6768L9.37346 33.121C7.4602 34.1269 5.22407 32.5023 5.58947 30.3718L6.84067 23.0768C6.98574 22.2307 6.70527 21.3676 6.09061 20.7684L0.790428 15.602C-0.75744 14.0932 0.0966793 11.4645 2.23575 11.1537L9.56045 10.0893C10.4099 9.96591 11.1442 9.43239 11.5241 8.66264L14.7998 2.02538C15.7564 0.0870805 18.5205 0.0870805 19.4771 2.02538Z" fill="#FCC85D"/>
<path d="M28.1852 20.7666C27.5716 21.3692 27.2896 22.2317 27.4389 23.0775L28.6883 30.3696C29.0531 32.5036 26.8141 34.129 24.9013 33.1228L18.35 29.6785C17.5926 29.2749 16.686 29.2749 15.923 29.6785L9.37178 33.1228C7.45893 34.129 5.2254 32.5036 5.59025 30.3696L6.45822 25.3L9.79191 23.5474C10.5548 23.1438 11.4615 23.1438 12.2189 23.5474L18.7702 26.9917C20.683 27.9979 22.9221 26.3725 22.5572 24.2385L21.3022 16.9464C21.1585 16.1005 21.4404 15.2381 22.0541 14.6355L26.4603 10.3453L32.0386 11.1525C34.1781 11.4621 35.035 14.0937 33.4871 15.6029L28.1852 20.7666Z" fill="#EF9638"/>
<path d="M28.1851 20.7666C27.5715 21.3692 27.2895 22.2317 27.4388 23.0775L28.6882 30.3696C29.053 32.5036 26.814 34.129 24.9012 33.1228L18.3499 29.6785C17.5925 29.2749 16.6859 29.2749 15.9229 29.6785L9.37167 33.1228C7.69649 34.0018 5.78364 32.8685 5.57361 31.1436C6.07118 31.2099 6.60189 31.127 7.1105 30.8616L13.6618 27.4174C14.4247 27.0138 15.3314 27.0138 16.0888 27.4174L22.6401 30.8616C24.5529 31.8678 26.792 30.2424 26.4271 28.1084L25.1777 20.8163C25.0284 19.9704 25.3103 19.108 25.924 18.5054L31.2259 13.3418C31.8616 12.7226 32.0938 11.9099 31.9888 11.147L32.0386 11.1525C34.1782 11.4622 35.035 14.0937 33.4871 15.603L28.1851 20.7666Z" fill="#F78426"/>
</svg>
